<?xml version="1.0" encoding="utf-8"?>
<!-- Generator: Adobe Illustrator 16.0.0, SVG Export Plug-In . SVG Version: 6.00 Build 0)  -->
<!DOCTYPE svg PUBLIC "-//W3C//DTD SVG 1.1//EN" "http://www.w3.org/Graphics/SVG/1.1/DTD/svg11.dtd">
<svg version="1.1" id="Layer_1" xmlns="http://www.w3.org/2000/svg" xmlns:xlink="http://www.w3.org/1999/xlink" x="0px" y="0px"
	 width="1100px" height="290px" viewBox="0 0 1100 290" enable-background="new 0 0 1100 290" xml:space="preserve">
<g>
	<path fill="#000100" d="M423.583,113.358c0,4.515-1.846,8.239-5.529,11.184c-4.052,3.131-9.393,4.701-16.024,4.701
		c-3.682,0-7.481-0.514-11.392-1.523c-3.921-1.009-6.701-2.158-8.361-3.448l3.042-6.355c5.889,2.943,11.551,4.421,16.986,4.421
		c3.869,0,7.094-0.758,9.669-2.281c2.58-1.519,3.869-3.472,3.869-5.869c0-3.496-2.673-6.538-8.009-9.117
		c-4.884-2.304-9.763-4.65-14.646-7.047c-5.341-3.407-8.009-7.874-8.009-13.397c0-4.146,1.77-7.44,5.317-9.879
		c3.541-2.439,8.309-3.658,14.295-3.658c6.262,0,11.926,1.565,16.996,4.695l-3.318,6.216c-4.972-2.851-9.623-4.281-13.955-4.281
		c-7.92,0-11.879,2.206-11.879,6.626c0,3.505,2.674,6.632,8.015,9.397c4.972,2.487,9.945,4.973,14.917,7.458
		C420.908,104.61,423.583,108.658,423.583,113.358z"/>
	<path fill="#000100" d="M480.636,78.96h-21.002v48.348h-7.318V78.96H431.18v-6.219h49.457V78.96z"/>
	<path fill="#000100" d="M537.548,126.336l-7.183,2.355l-5.663-15.061H498.87l-6.217,15.061l-6.771-1.804l23.486-54.146H516
		L537.548,126.336z M522.216,107.279l-10.084-25.833l-10.5,25.833H522.216z"/>
	<path fill="#000100" d="M600.54,127.308h-8.014l-31.221-46.554v46.554h-7.181V72.741h10.359l28.875,42.413V72.741h7.181V127.308z"
		/>
	<path fill="#000100" d="M666.573,124.682c-1.566,0.925-4.377,1.888-8.429,2.907c-4.695,1.103-8.933,1.653-12.702,1.653
		c-8.385,0-14.876-2.598-19.484-7.804c-4.608-5.206-6.905-12.552-6.905-22.033c0-8.379,2.597-15.196,7.803-20.445
		c5.2-5.247,12.177-7.873,20.93-7.873c6.995,0,12.391,1.102,16.166,3.313l-2.213,6.215c-5.063-2.023-9.719-3.037-13.953-3.037
		c-14.089,0-21.134,7.14-21.134,21.412c0,16.024,6.212,24.038,18.648,24.038c3.959,0,8.607-0.833,13.953-2.496v-19.333h7.32V124.682
		z"/>
	<path fill="#000100" d="M724.311,127.308h-38.12V72.741h34.672v6.219h-27.491v16.856h23.759v6.211h-23.759v18.924h30.939V127.308z"
		/>
	<path fill="#000100" d="M811.345,113.358c0,4.515-1.842,8.239-5.528,11.184c-4.055,3.131-9.394,4.701-16.021,4.701
		c-3.687,0-7.487-0.514-11.396-1.523c-3.915-1.009-6.701-2.158-8.36-3.448l3.043-6.355c5.89,2.943,11.551,4.421,16.986,4.421
		c3.869,0,7.091-0.758,9.672-2.281c2.575-1.519,3.869-3.472,3.869-5.869c0-3.496-2.674-6.538-8.014-9.117
		c-4.884-2.304-9.762-4.65-14.646-7.047c-5.337-3.407-8.011-7.874-8.011-13.397c0-4.146,1.771-7.44,5.317-9.879
		c3.547-2.439,8.311-3.658,14.3-3.658c6.262,0,11.926,1.565,16.992,4.695l-3.314,6.216c-4.974-2.851-9.626-4.281-13.953-4.281
		c-7.921,0-11.883,2.206-11.883,6.626c0,3.505,2.672,6.632,8.014,9.397c4.975,2.487,9.945,4.973,14.916,7.458
		C808.67,104.61,811.345,108.658,811.345,113.358z"/>
	<path fill="#000100" d="M868.398,78.96H847.4v48.348h-7.323V78.96h-21.134v-6.219h49.455V78.96z"/>
	<path fill="#000100" d="M927.525,103.134c0,8.477-2.145,14.898-6.426,19.267c-4.28,4.374-9.879,6.561-16.785,6.561
		c-15.661,0-23.486-8.608-23.486-25.828V72.741h7.188v30.944c0,5.622,1.194,10.085,3.587,13.402c2.857,3.959,7.048,5.94,12.573,5.94
		c10.78,0,16.163-6.538,16.163-19.618V72.741h7.187V103.134z"/>
	<path fill="#000100" d="M999.495,99.265c0,7.921-1.845,14.323-5.528,19.202c-4.327,5.898-10.91,8.842-19.753,8.842h-23.211V72.741
		h20.726C990.237,72.741,999.495,81.582,999.495,99.265z M991.76,98.989c0-13.351-6.729-20.029-20.168-20.029h-13.402v41.992h14.504
		C985.406,120.952,991.76,113.63,991.76,98.989z"/>
	<path fill="#000100" d="M1025.188,127.308h-7.188V72.741h7.188V127.308z"/>
	<path fill="#000100" d="M1100.061,100.092c0,8.757-2.692,15.799-8.081,21.141c-5.386,5.337-12.09,8.009-20.104,8.009
		c-8.103,0-14.733-2.579-19.89-7.739c-5.435-5.43-8.146-12.57-8.146-21.412c0-8.743,2.712-15.836,8.146-21.271
		c5.25-5.154,11.833-7.733,19.754-7.733c7.917,0,14.621,2.808,20.1,8.425C1097.315,85.13,1100.061,91.989,1100.061,100.092z
		 M1091.911,102.307c0-7.92-1.938-14-5.807-18.234c-3.868-4.238-8.936-6.355-15.19-6.355c-5.528,0-10.112,1.912-13.749,5.729
		c-3.641,3.822-5.457,8.542-5.457,14.164c0,16.668,6.952,24.996,20.858,24.996c5.528,0,10.134-1.954,13.814-5.865
		C1090.066,112.826,1091.911,108.018,1091.911,102.307z"/>
</g>
<g>
	<path fill="#000100" d="M557.566,179.918h2.659l-11.969,27.664h-2.234l-6.223-14.631l-6.226,14.631h-2.233l-11.968-27.664h2.608
		l10.584,24.739l5.799-13.618l-4.682-11.064h2.289l3.829,9.148l3.779-9.148h2.341l-4.683,11.064l5.799,13.618L557.566,179.918z"/>
	<path fill="#000100" d="M576.132,208.114c-1.953,0-3.764-0.384-5.426-1.144c-1.669-0.764-3.114-1.81-4.337-3.136
		c-1.226-1.332-2.182-2.864-2.872-4.605c-0.693-1.738-1.04-3.602-1.04-5.589c0-1.943,0.347-3.779,1.04-5.498
		c0.69-1.726,1.641-3.233,2.845-4.53c1.204-1.294,2.634-2.312,4.28-3.05c1.649-0.752,3.433-1.121,5.346-1.121
		c1.953,0,3.761,0.381,5.429,1.14c1.665,0.768,3.104,1.795,4.312,3.089c1.204,1.295,2.142,2.803,2.816,4.519
		c0.672,1.725,1.009,3.541,1.009,5.452c0,0.183,0,0.404,0,0.666c0,0.271-0.018,0.438-0.049,0.508h-24.261
		c0.108,1.599,0.478,3.076,1.118,4.444c0.641,1.36,1.448,2.541,2.42,3.533c0.979,0.995,2.102,1.771,3.38,2.342
		c1.275,0.569,2.641,0.851,4.095,0.851c0.957,0,1.895-0.133,2.82-0.393c0.922-0.272,1.779-0.632,2.578-1.095
		c0.796-0.463,1.508-1.018,2.126-1.676c0.622-0.659,1.108-1.374,1.465-2.157l2.34,0.643c-0.391,0.99-0.966,1.901-1.728,2.734
		c-0.762,0.84-1.649,1.555-2.658,2.157c-1.01,0.604-2.117,1.075-3.328,1.411C578.651,207.945,577.406,208.114,576.132,208.114z
		 M586.983,192.683c-0.108-1.631-0.474-3.115-1.096-4.465c-0.616-1.342-1.415-2.51-2.387-3.481
		c-0.978-0.974-2.104-1.738-3.383-2.291c-1.275-0.546-2.641-0.821-4.095-0.821c-1.452,0-2.816,0.275-4.099,0.821
		c-1.274,0.553-2.401,1.317-3.373,2.291c-0.979,0.972-1.759,2.145-2.341,3.507c-0.585,1.366-0.935,2.845-1.039,4.439H586.983z"/>
	<path fill="#000100" d="M608.315,208.114c-2.164,0-4.182-0.565-6.066-1.706c-1.879-1.134-3.353-2.584-4.417-4.359v5.533h-2.442
		v-38.833h2.659v17.179c1.313-1.911,2.863-3.473,4.651-4.675c1.793-1.209,3.857-1.812,6.197-1.812c1.95,0,3.717,0.417,5.296,1.246
		c1.575,0.833,2.906,1.935,3.986,3.3c1.083,1.366,1.916,2.906,2.504,4.632c0.585,1.72,0.879,3.467,0.879,5.237
		c0,1.911-0.34,3.729-1.012,5.453c-0.675,1.721-1.606,3.23-2.792,4.525c-1.191,1.294-2.588,2.327-4.206,3.112
		C611.939,207.723,610.194,208.114,608.315,208.114z M607.783,205.719c1.631,0,3.12-0.339,4.466-1.006
		c1.35-0.679,2.511-1.569,3.485-2.691c0.979-1.111,1.739-2.384,2.284-3.806c0.555-1.415,0.83-2.869,0.83-4.359
		c0-1.561-0.257-3.06-0.771-4.494c-0.52-1.435-1.244-2.717-2.182-3.828c-0.941-1.121-2.059-2.015-3.353-2.69
		c-1.293-0.671-2.721-1.006-4.28-1.006c-1.173,0-2.269,0.202-3.3,0.607c-1.027,0.412-1.975,0.949-2.844,1.627
		c-0.87,0.667-1.65,1.451-2.344,2.34c-0.689,0.885-1.266,1.806-1.727,2.763v9.149c0.108,1.027,0.495,1.996,1.167,2.896
		c0.675,0.909,1.482,1.688,2.42,2.344c0.941,0.659,1.963,1.181,3.062,1.569C605.796,205.525,606.823,205.719,607.783,205.719z"/>
	<path fill="#000100" d="M652.998,208.114c-1.916,0-3.69-0.396-5.321-1.196c-1.631-0.799-3.042-1.863-4.231-3.191
		c-1.185-1.332-2.104-2.859-2.767-4.574c-0.656-1.722-0.979-3.506-0.979-5.346c0-1.916,0.316-3.745,0.954-5.483
		c0.637-1.737,1.525-3.261,2.661-4.574c1.137-1.308,2.474-2.355,4.015-3.139c1.542-0.777,3.234-1.169,5.079-1.169
		c1.207,0,2.344,0.179,3.408,0.533c1.064,0.354,2.055,0.821,2.978,1.406c0.919,0.584,1.755,1.27,2.498,2.051
		c0.749,0.78,1.383,1.611,1.916,2.496v-17.179h2.658v35.107c0,0.889,0.375,1.333,1.117,1.333v2.393
		c-0.213,0.032-0.387,0.06-0.532,0.08c-0.139,0.013-0.281,0.028-0.421,0.028c-0.715,0-1.318-0.277-1.813-0.828
		c-0.495-0.547-0.743-1.127-0.743-1.729v-3.085c-1.136,1.847-2.649,3.313-4.547,4.412
		C657.027,207.564,655.056,208.114,652.998,208.114z M653.475,205.719c0.959,0,1.986-0.193,3.086-0.585
		c1.096-0.389,2.117-0.931,3.061-1.622c0.935-0.69,1.743-1.479,2.421-2.371c0.671-0.881,1.059-1.836,1.167-2.868v-9.098
		c-0.388-0.992-0.947-1.939-1.678-2.847c-0.725-0.901-1.548-1.682-2.474-2.341c-0.919-0.653-1.916-1.178-2.975-1.563
		c-1.064-0.395-2.095-0.586-3.085-0.586c-1.598,0-3.053,0.34-4.365,1.032c-1.312,0.693-2.43,1.599-3.349,2.714
		c-0.925,1.119-1.631,2.396-2.126,3.834c-0.502,1.435-0.749,2.917-0.749,4.438c0,1.599,0.284,3.107,0.851,4.524
		c0.566,1.421,1.359,2.673,2.368,3.775c1.009,1.099,2.179,1.972,3.51,2.608C650.472,205.399,651.914,205.719,653.475,205.719z"/>
	<path fill="#000100" d="M686.085,208.114c-1.95,0-3.758-0.384-5.426-1.144c-1.668-0.764-3.113-1.81-4.333-3.136
		c-1.223-1.332-2.183-2.864-2.872-4.605c-0.693-1.738-1.04-3.602-1.04-5.589c0-1.943,0.347-3.779,1.04-5.498
		c0.689-1.726,1.637-3.233,2.844-4.53c1.207-1.294,2.631-2.312,4.281-3.05c1.649-0.752,3.429-1.121,5.345-1.121
		c1.95,0,3.758,0.381,5.426,1.14c1.669,0.768,3.105,1.795,4.309,3.089c1.207,1.295,2.146,2.803,2.82,4.519
		c0.675,1.725,1.012,3.541,1.012,5.452c0,0.183,0,0.404,0,0.666c0,0.271-0.019,0.438-0.049,0.508h-24.261
		c0.103,1.599,0.477,3.076,1.117,4.444c0.638,1.36,1.445,2.541,2.418,3.533c0.975,0.995,2.102,1.771,3.377,2.342
		c1.281,0.569,2.646,0.851,4.098,0.851c0.96,0,1.897-0.133,2.819-0.393c0.92-0.272,1.78-0.632,2.579-1.095
		c0.798-0.463,1.51-1.018,2.129-1.676c0.619-0.659,1.108-1.374,1.464-2.157l2.344,0.643c-0.394,0.99-0.969,1.901-1.736,2.734
		c-0.762,0.84-1.645,1.555-2.659,2.157c-1.009,0.604-2.117,1.075-3.321,1.411S687.363,208.114,686.085,208.114z M696.934,192.683
		c-0.102-1.631-0.467-3.115-1.086-4.465c-0.622-1.342-1.421-2.51-2.396-3.481c-0.976-0.974-2.103-1.738-3.377-2.291
		c-1.275-0.546-2.641-0.821-4.099-0.821c-1.454,0-2.816,0.275-4.092,0.821c-1.278,0.553-2.404,1.317-3.38,2.291
		c-0.978,0.972-1.758,2.145-2.343,3.507c-0.582,1.366-0.929,2.845-1.037,4.439H696.934z"/>
	<path fill="#000100" d="M713.109,207.582l-11.548-27.664h2.767l10.214,25l10.268-25h2.608l-11.548,27.664H713.109z"/>
	<path fill="#000100" d="M743.482,208.114c-1.947,0-3.761-0.384-5.426-1.144c-1.665-0.764-3.11-1.81-4.337-3.136
		c-1.222-1.332-2.176-2.864-2.872-4.605c-0.693-1.738-1.037-3.602-1.037-5.589c0-1.943,0.344-3.779,1.037-5.498
		c0.696-1.726,1.641-3.233,2.845-4.53c1.207-1.294,2.637-2.312,4.28-3.05c1.65-0.752,3.436-1.121,5.346-1.121
		c1.956,0,3.764,0.381,5.432,1.14c1.662,0.768,3.102,1.795,4.309,3.089c1.204,1.295,2.146,2.803,2.817,4.519
		c0.675,1.725,1.009,3.541,1.009,5.452c0,0.183,0,0.404,0,0.666c0,0.271-0.019,0.438-0.05,0.508h-24.26
		c0.108,1.599,0.477,3.076,1.117,4.444c0.641,1.36,1.448,2.541,2.421,3.533c0.978,0.995,2.104,1.771,3.38,2.342
		c1.274,0.569,2.64,0.851,4.098,0.851c0.953,0,1.895-0.133,2.816-0.393c0.923-0.272,1.783-0.632,2.581-1.095
		c0.796-0.463,1.505-1.018,2.127-1.676c0.622-0.659,1.104-1.374,1.461-2.157l2.343,0.643c-0.39,0.99-0.969,1.901-1.729,2.734
		c-0.762,0.84-1.65,1.555-2.659,2.157c-1.009,0.604-2.117,1.075-3.327,1.411C746.002,207.945,744.758,208.114,743.482,208.114z
		 M754.334,192.683c-0.108-1.631-0.474-3.115-1.093-4.465c-0.618-1.342-1.417-2.51-2.39-3.481c-0.975-0.974-2.102-1.738-3.376-2.291
		c-1.282-0.546-2.646-0.821-4.099-0.821c-1.454,0-2.819,0.275-4.101,0.821c-1.275,0.553-2.402,1.317-3.374,2.291
		c-0.975,0.972-1.755,2.145-2.34,3.507c-0.585,1.366-0.929,2.845-1.037,4.439H754.334z"/>
	<path fill="#000100" d="M762.951,168.749h2.715v33.353c0,1.026,0.291,1.844,0.872,2.448c0.585,0.603,1.396,0.905,2.421,0.905
		c0.39,0,0.86-0.048,1.414-0.136c0.545-0.082,1.056-0.219,1.514-0.401l0.532,2.13c-0.604,0.254-1.346,0.455-2.234,0.614
		c-0.889,0.162-1.649,0.241-2.284,0.241c-1.492,0-2.687-0.456-3.594-1.36c-0.903-0.905-1.355-2.121-1.355-3.645V168.749z"/>
	<path fill="#000100" d="M788.112,208.114c-1.95,0-3.755-0.384-5.398-1.144c-1.649-0.764-3.076-1.805-4.287-3.114
		c-1.2-1.311-2.145-2.837-2.816-4.574c-0.672-1.733-1.009-3.56-1.009-5.476c0-1.955,0.347-3.8,1.037-5.539
		c0.689-1.733,1.641-3.258,2.844-4.574c1.208-1.31,2.635-2.345,4.281-3.112c1.652-0.759,3.436-1.14,5.349-1.14
		c1.916,0,3.687,0.381,5.32,1.14c1.631,0.768,3.058,1.803,4.28,3.112c1.227,1.316,2.183,2.841,2.876,4.574
		c0.69,1.739,1.037,3.584,1.037,5.539c0,1.916-0.347,3.742-1.037,5.476c-0.693,1.737-1.641,3.264-2.851,4.574
		c-1.201,1.31-2.631,2.351-4.281,3.114C791.808,207.73,790.028,208.114,788.112,208.114z M777.26,193.909
		c0,1.631,0.285,3.167,0.852,4.603c0.566,1.435,1.34,2.687,2.313,3.753c0.978,1.065,2.12,1.906,3.436,2.528
		c1.306,0.614,2.708,0.926,4.2,0.926c1.491,0,2.894-0.312,4.203-0.926c1.31-0.622,2.467-1.482,3.457-2.586
		c0.994-1.099,1.771-2.363,2.34-3.803c0.566-1.435,0.852-2.99,0.852-4.655c0-1.631-0.285-3.163-0.852-4.603
		c-0.569-1.435-1.346-2.692-2.34-3.775c-0.99-1.081-2.142-1.939-3.433-2.576c-1.293-0.645-2.687-0.957-4.175-0.957
		c-1.486,0-2.888,0.313-4.203,0.957c-1.313,0.637-2.458,1.505-3.43,2.604c-0.976,1.099-1.759,2.388-2.34,3.855
		C777.551,190.727,777.26,192.282,777.26,193.909z"/>
	<path fill="#000100" d="M821.519,208.114c-2.377,0-4.501-0.63-6.36-1.887c-1.857-1.265-3.358-2.797-4.494-4.603v17.29h-2.659
		v-38.997h2.448v5.533c1.136-1.771,2.631-3.221,4.494-4.332c1.86-1.123,3.856-1.678,5.983-1.678c1.916,0,3.692,0.409,5.32,1.225
		c1.634,0.817,3.03,1.888,4.203,3.218c1.167,1.329,2.083,2.864,2.736,4.598c0.662,1.741,0.987,3.512,0.987,5.325
		c0,1.916-0.304,3.742-0.907,5.476c-0.604,1.737-1.461,3.264-2.578,4.574c-1.117,1.31-2.457,2.351-4.015,3.114
		C825.118,207.73,823.397,208.114,821.519,208.114z M820.878,205.719c1.594,0,3.052-0.339,4.361-1.006
		c1.312-0.679,2.43-1.569,3.354-2.691c0.92-1.111,1.625-2.393,2.127-3.832c0.495-1.435,0.742-2.898,0.742-4.383
		c0-1.601-0.284-3.114-0.851-4.553c-0.563-1.435-1.355-2.701-2.365-3.803c-1.012-1.099-2.191-1.977-3.541-2.636
		c-1.346-0.649-2.782-0.978-4.305-0.978c-0.957,0-1.981,0.202-3.059,0.607c-1.086,0.412-2.104,0.957-3.058,1.65
		c-0.963,0.691-1.777,1.485-2.448,2.369c-0.678,0.889-1.065,1.826-1.173,2.816v9.1c0.461,1.023,1.046,1.984,1.758,2.868
		c0.709,0.893,1.507,1.67,2.393,2.342c0.888,0.678,1.845,1.202,2.872,1.57C818.714,205.536,819.782,205.719,820.878,205.719z"/>
	<path fill="#000100" d="M881.203,207.582h-2.659v-15.425c0-3.511-0.541-6.1-1.628-7.772c-1.077-1.662-2.736-2.495-4.971-2.495
		c-1.136,0-2.213,0.211-3.244,0.635c-1.03,0.426-1.965,1.023-2.822,1.78c-0.849,0.768-1.582,1.668-2.204,2.717
		c-0.622,1.045-1.111,2.21-1.464,3.479v17.081h-2.659v-15.425c0-3.554-0.532-6.146-1.597-7.789
		c-1.062-1.653-2.711-2.479-4.943-2.479c-1.142,0-2.213,0.2-3.222,0.611c-1.009,0.407-1.938,0.991-2.795,1.757
		c-0.849,0.757-1.601,1.665-2.257,2.712c-0.659,1.046-1.163,2.205-1.517,3.48v17.132h-2.661v-27.664h2.5v6.598
		c1.137-2.237,2.628-3.966,4.47-5.215c1.845-1.232,3.882-1.859,6.116-1.859c2.34,0,4.237,0.692,5.692,2.074
		c1.451,1.382,2.321,3.191,2.605,5.426c2.628-5.007,6.24-7.5,10.853-7.5c3.015,0,5.169,1.074,6.463,3.221
		c1.293,2.148,1.943,5.152,1.943,9.012V207.582z"/>
	<path fill="#000100" d="M900.99,208.114c-1.949,0-3.757-0.384-5.426-1.144c-1.668-0.764-3.113-1.81-4.336-3.136
		c-1.223-1.332-2.179-2.864-2.869-4.605c-0.693-1.738-1.04-3.602-1.04-5.589c0-1.943,0.347-3.779,1.04-5.498
		c0.69-1.726,1.641-3.233,2.838-4.53c1.21-1.294,2.638-2.312,4.287-3.05c1.649-0.752,3.43-1.121,5.346-1.121
		c1.949,0,3.757,0.381,5.426,1.14c1.668,0.768,3.104,1.795,4.309,3.089c1.207,1.295,2.145,2.803,2.816,4.519
		c0.678,1.725,1.012,3.541,1.012,5.452c0,0.183,0,0.404,0,0.666c0,0.271-0.016,0.438-0.046,0.508h-24.264
		c0.108,1.599,0.479,3.076,1.114,4.444c0.641,1.36,1.449,2.541,2.421,3.533c0.978,0.995,2.104,1.771,3.38,2.342
		c1.281,0.569,2.646,0.851,4.098,0.851c0.96,0,1.897-0.133,2.82-0.393c0.919-0.272,1.779-0.632,2.578-1.095
		c0.798-0.463,1.504-1.018,2.129-1.676c0.619-0.659,1.108-1.374,1.465-2.157l2.34,0.643c-0.391,0.99-0.973,1.901-1.733,2.734
		c-0.762,0.84-1.65,1.555-2.659,2.157c-1.009,0.604-2.117,1.075-3.321,1.411C903.507,207.945,902.266,208.114,900.99,208.114z
		 M911.839,192.683c-0.108-1.631-0.467-3.115-1.089-4.465c-0.619-1.342-1.418-2.51-2.393-3.481
		c-0.976-0.974-2.102-1.738-3.377-2.291c-1.275-0.546-2.646-0.821-4.099-0.821c-1.454,0-2.819,0.275-4.095,0.821
		c-1.275,0.553-2.404,1.317-3.377,2.291c-0.978,0.972-1.758,2.145-2.343,3.507c-0.585,1.366-0.929,2.845-1.037,4.439H911.839z"/>
	<path fill="#000100" d="M942.856,207.582h-2.662v-15.425c0-3.585-0.508-6.189-1.517-7.819c-1.009-1.636-2.618-2.448-4.813-2.448
		c-1.173,0-2.333,0.211-3.484,0.635c-1.151,0.426-2.226,1.027-3.216,1.813c-0.997,0.78-1.867,1.69-2.609,2.738
		c-0.746,1.046-1.294,2.173-1.65,3.374v17.132h-2.658v-27.664h2.494v6.598c0.573-1.064,1.272-2.027,2.105-2.903
		c0.832-0.863,1.77-1.604,2.816-2.231c1.049-0.617,2.16-1.099,3.327-1.437c1.173-0.335,2.374-0.503,3.618-0.503
		c3.015,0,5.142,1.056,6.383,3.168c1.237,2.106,1.866,5.132,1.866,9.064V207.582z"/>
	<path fill="#000100" d="M962.963,206.256c-0.143,0.064-0.384,0.199-0.719,0.396c-0.337,0.193-0.761,0.38-1.274,0.558
		c-0.518,0.178-1.096,0.34-1.73,0.481c-0.641,0.138-1.331,0.213-2.074,0.213c-0.746,0-1.448-0.108-2.104-0.321
		c-0.653-0.216-1.235-0.534-1.73-0.958c-0.495-0.426-0.882-0.938-1.167-1.543c-0.284-0.603-0.424-1.307-0.424-2.127v-20.854h-3.885
		v-2.183h3.885v-9.463h2.659v9.463h6.435v2.183h-6.435v20.215c0,1.027,0.353,1.8,1.062,2.312c0.709,0.515,1.507,0.772,2.396,0.772
		c1.099,0,2.049-0.188,2.848-0.557c0.795-0.373,1.284-0.616,1.461-0.715L962.963,206.256z"/>
</g>
<g>
	<polygon points="288,52.451 288,1 0,1 0,174.878 	"/>
	<polygon points="0,237.55 0,289 288,289 288,115.119 	"/>
</g>
</svg>
