<?xml version="1.0" encoding="utf-8"?>
<!-- Generator: Adobe Illustrator 25.0.0, SVG Export Plug-In . SVG Version: 6.00 Build 0)  -->
<svg version="1.1" xmlns="http://www.w3.org/2000/svg" xmlns:xlink="http://www.w3.org/1999/xlink" x="0px" y="0px"
	 viewBox="0 0 2000 2000" style="enable-background:new 0 0 2000 2000;" xml:space="preserve">
<style type="text/css">
	.st0{display:none;}
	.st1{display:inline;}
	.st2{fill:#eee;}
</style>
<g id="Layer_2" class="st0">
	<rect x="-1" y="1" class="st1" width="2000" height="2000"/>
</g>
<g id="Layer_1">
	<g>
		<path class="st2" d="M303.52,1371.06c0,9.9-4.05,18.07-12.13,24.52c-8.88,6.87-20.6,10.31-35.14,10.31
			c-8.08,0-16.41-1.13-24.99-3.34c-8.6-2.21-14.7-4.74-18.34-7.56l6.67-13.94c12.91,6.46,25.34,9.7,37.25,9.7
			c8.49,0,15.56-1.66,21.21-5c5.66-3.33,8.49-7.62,8.49-12.88c0-7.66-5.86-14.34-17.56-19.99c-10.71-5.05-21.41-10.2-32.12-15.46
			c-11.71-7.47-17.56-17.27-17.56-29.38c0-9.1,3.89-16.32,11.66-21.67c7.77-5.35,18.22-8.02,31.35-8.02
			c13.73,0,26.15,3.44,37.27,10.3l-7.28,13.63c-10.9-6.25-21.1-9.39-30.6-9.39c-17.37,0-26.05,4.84-26.05,14.53
			c0,7.68,5.86,14.54,17.57,20.61c10.9,5.45,21.81,10.91,32.71,16.36C297.66,1351.88,303.52,1360.75,303.52,1371.06z"/>
		<path class="st2" d="M428.64,1295.63h-46.06v106.03h-16.05v-106.03h-46.35v-13.64h108.46V1295.63z"/>
		<path class="st2" d="M553.45,1399.52l-15.75,5.17l-12.42-33.03h-56.65L455,1404.69l-14.85-3.96l51.51-118.75h14.54L553.45,1399.52
			z M519.83,1357.73l-22.12-56.65l-23.03,56.65H519.83z"/>
		<path class="st2" d="M691.6,1401.65h-17.57l-68.47-102.1v102.1H589.8v-119.67h22.72l63.32,93.02v-93.02h15.75V1401.65z"/>
		<path class="st2" d="M836.41,1395.89c-3.43,2.03-9.59,4.14-18.48,6.38c-10.3,2.42-19.59,3.62-27.86,3.62
			c-18.39,0-32.62-5.7-42.73-17.11c-10.11-11.42-15.15-27.53-15.15-48.32c0-18.38,5.7-33.33,17.11-44.83
			c11.41-11.51,26.71-17.27,45.9-17.27c15.34,0,27.17,2.42,35.45,7.26l-4.85,13.63c-11.1-4.43-21.31-6.66-30.6-6.66
			c-30.9,0-46.35,15.66-46.35,46.96c0,35.14,13.63,52.71,40.9,52.71c8.68,0,18.88-1.83,30.6-5.47v-42.4h16.05V1395.89z"/>
		<path class="st2" d="M963.03,1401.65h-83.6v-119.67h76.04v13.64h-60.29v36.96h52.1v13.62h-52.1v41.5h67.85V1401.65z"/>
		<path class="st2" d="M1153.9,1371.06c0,9.9-4.04,18.07-12.12,24.52c-8.89,6.87-20.6,10.31-35.13,10.31
			c-8.08,0-16.42-1.13-24.99-3.34c-8.59-2.21-14.7-4.74-18.33-7.56l6.67-13.94c12.92,6.46,25.33,9.7,37.25,9.7
			c8.48,0,15.55-1.66,21.21-5c5.65-3.33,8.48-7.62,8.48-12.88c0-7.66-5.87-14.34-17.57-19.99c-10.71-5.05-21.41-10.2-32.12-15.46
			c-11.7-7.47-17.57-17.27-17.57-29.38c0-9.1,3.88-16.32,11.66-21.67c7.78-5.35,18.22-8.02,31.36-8.02
			c13.73,0,26.15,3.44,37.27,10.3l-7.27,13.63c-10.91-6.25-21.11-9.39-30.6-9.39c-17.37,0-26.06,4.84-26.06,14.53
			c0,7.68,5.86,14.54,17.57,20.61c10.91,5.45,21.81,10.91,32.71,16.36C1148.04,1351.88,1153.9,1360.75,1153.9,1371.06z"/>
		<path class="st2" d="M1279.02,1295.63h-46.05v106.03h-16.06v-106.03h-46.35v-13.64h108.46V1295.63z"/>
		<path class="st2" d="M1408.69,1348.64c0,18.59-4.71,32.67-14.09,42.25c-9.39,9.59-21.67,14.38-36.81,14.38
			c-34.35,0-51.51-18.88-51.51-56.64v-66.66h15.76v67.87c0,12.33,2.62,22.12,7.87,29.39c6.27,8.68,15.46,13.03,27.57,13.03
			c23.64,0,35.45-14.34,35.45-43.02v-67.26h15.76V1348.64z"/>
		<path class="st2" d="M1566.52,1340.16c0,17.37-4.04,31.41-12.12,42.11c-9.49,12.94-23.93,19.39-43.32,19.39h-50.9v-119.67h45.45
			C1546.22,1281.98,1566.52,1301.38,1566.52,1340.16z M1549.56,1339.55c0-29.28-14.76-43.92-44.23-43.92h-29.39v92.08h31.81
			C1535.62,1387.71,1549.56,1371.66,1549.56,1339.55z"/>
		<path class="st2" d="M1622.87,1401.65h-15.76v-119.67h15.76V1401.65z"/>
		<path class="st2" d="M1787.07,1341.97c0,19.2-5.9,34.65-17.72,46.36c-11.81,11.7-26.51,17.57-44.09,17.57
			c-17.77,0-32.31-5.65-43.62-16.97c-11.92-11.91-17.87-27.57-17.87-46.96c0-19.18,5.95-34.73,17.87-46.65
			c11.51-11.3,25.95-16.96,43.32-16.96c17.36,0,32.07,6.16,44.08,18.48C1781.05,1309.16,1787.07,1324.2,1787.07,1341.97z
			 M1769.2,1346.82c0-17.36-4.25-30.7-12.73-39.99c-8.49-9.29-19.6-13.94-33.32-13.94c-12.12,0-22.18,4.19-30.15,12.56
			c-7.98,8.38-11.97,18.73-11.97,31.06c0,36.56,15.24,54.82,45.74,54.82c12.12,0,22.22-4.28,30.29-12.86
			C1765.15,1369.89,1769.2,1359.35,1769.2,1346.82z"/>
	</g>
	<g>
		<path class="st2" d="M597.35,1517.03h5.83l-26.25,60.67h-4.9l-13.65-32.09l-13.65,32.09h-4.9l-26.25-60.67h5.72l23.21,54.26
			l12.72-29.87l-10.27-24.27H550l8.39,20.07l8.29-20.07h5.13l-10.27,24.27l12.72,29.87L597.35,1517.03z"/>
		<path class="st2" d="M638.07,1578.87c-4.29,0-8.25-0.84-11.9-2.51c-3.66-1.67-6.83-3.96-9.51-6.88c-2.69-2.92-4.79-6.28-6.3-10.1
			c-1.52-3.81-2.28-7.89-2.28-12.25c0-4.26,0.76-8.29,2.28-12.06c1.52-3.78,3.6-7.09,6.24-9.93c2.64-2.84,5.78-5.07,9.39-6.69
			c3.62-1.65,7.53-2.46,11.72-2.46c4.28,0,8.25,0.83,11.91,2.5c3.65,1.68,6.81,3.94,9.45,6.77c2.64,2.84,4.7,6.15,6.18,9.91
			c1.47,3.78,2.21,7.77,2.21,11.96c0,0.4,0,0.88,0,1.46c0,0.59-0.04,0.96-0.11,1.11h-53.2c0.24,3.5,1.04,6.75,2.45,9.75
			c1.4,2.98,3.18,5.57,5.31,7.74c2.14,2.19,4.61,3.88,7.41,5.14c2.8,1.25,5.79,1.87,8.98,1.87c2.09,0,4.15-0.29,6.18-0.86
			c2.02-0.6,3.9-1.38,5.65-2.4c1.75-1.01,3.3-2.23,4.66-3.67c1.37-1.45,2.43-3.01,3.21-4.73l5.13,1.4c-0.86,2.17-2.12,4.17-3.79,6
			c-1.67,1.84-3.62,3.41-5.83,4.73c-2.21,1.32-4.64,2.36-7.3,3.09C643.59,1578.49,640.86,1578.87,638.07,1578.87z M661.86,1545.02
			c-0.23-3.58-1.04-6.83-2.4-9.79c-1.35-2.95-3.1-5.5-5.23-7.64c-2.15-2.14-4.62-3.81-7.42-5.02c-2.8-1.2-5.79-1.81-8.98-1.81
			c-3.19,0-6.18,0.6-8.99,1.81c-2.8,1.21-5.27,2.88-7.4,5.02c-2.14,2.13-3.86,4.71-5.13,7.69c-1.28,2.99-2.05,6.24-2.28,9.73H661.86
			z"/>
		<path class="st2" d="M708.65,1578.87c-4.75,0-9.17-1.24-13.3-3.74c-4.12-2.49-7.35-5.67-9.69-9.56v12.14h-5.36v-85.16h5.83v37.67
			c2.88-4.19,6.28-7.62,10.2-10.26c3.93-2.65,8.46-3.97,13.59-3.97c4.28,0,8.15,0.92,11.61,2.74c3.45,1.83,6.37,4.24,8.74,7.24
			c2.38,2.99,4.2,6.37,5.49,10.16c1.28,3.77,1.93,7.6,1.93,11.49c0,4.19-0.75,8.18-2.22,11.96c-1.48,3.77-3.52,7.09-6.12,9.92
			c-2.61,2.84-5.68,5.1-9.22,6.83C716.6,1578,712.77,1578.87,708.65,1578.87z M707.48,1573.61c3.57,0,6.84-0.75,9.79-2.21
			c2.96-1.49,5.5-3.44,7.64-5.91c2.15-2.44,3.82-5.23,5.01-8.34c1.21-3.1,1.82-6.29,1.82-9.56c0-3.42-0.56-6.71-1.69-9.86
			c-1.14-3.14-2.73-5.95-4.79-8.39c-2.06-2.46-4.51-4.42-7.35-5.91c-2.84-1.47-5.97-2.21-9.39-2.21c-2.57,0-4.98,0.45-7.24,1.34
			c-2.25,0.9-4.33,2.08-6.24,3.56c-1.91,1.47-3.62,3.18-5.14,5.13c-1.51,1.94-2.78,3.96-3.79,6.06v20.06
			c0.23,2.25,1.08,4.38,2.56,6.35c1.48,1.99,3.25,3.7,5.31,5.14c2.06,1.45,4.3,2.59,6.71,3.44
			C703.12,1573.18,705.38,1573.61,707.48,1573.61z"/>
		<path class="st2" d="M806.64,1578.87c-4.2,0-8.09-0.87-11.67-2.63c-3.57-1.75-6.67-4.09-9.28-7c-2.6-2.92-4.62-6.27-6.07-10.03
			c-1.44-3.77-2.15-7.68-2.15-11.72c0-4.2,0.7-8.21,2.09-12.02c1.4-3.81,3.35-7.15,5.84-10.03c2.49-2.87,5.42-5.17,8.8-6.88
			c3.38-1.7,7.09-2.57,11.14-2.57c2.64,0,5.14,0.39,7.47,1.17c2.34,0.78,4.51,1.81,6.53,3.09c2.02,1.28,3.85,2.78,5.48,4.49
			c1.64,1.71,3.03,3.54,4.2,5.48v-37.67h5.83v76.99c0,1.95,0.82,2.93,2.45,2.93v5.25c-0.47,0.07-0.85,0.13-1.17,0.18
			c-0.31,0.03-0.62,0.06-0.92,0.06c-1.57,0-2.89-0.61-3.98-1.82c-1.09-1.19-1.63-2.47-1.63-3.79v-6.77
			c-2.49,4.05-5.81,7.27-9.97,9.68C815.47,1577.66,811.15,1578.87,806.64,1578.87z M807.68,1573.61c2.1,0,4.36-0.43,6.77-1.28
			c2.4-0.86,4.64-2.04,6.71-3.56c2.05-1.51,3.83-3.24,5.31-5.2c1.48-1.93,2.32-4.03,2.56-6.29v-19.95
			c-0.85-2.18-2.08-4.26-3.68-6.25c-1.59-1.98-3.39-3.69-5.42-5.13c-2.02-1.43-4.2-2.59-6.53-3.43c-2.33-0.87-4.59-1.29-6.76-1.29
			c-3.5,0-6.69,0.75-9.57,2.27c-2.88,1.52-5.33,3.5-7.34,5.95c-2.03,2.45-3.58,5.25-4.67,8.4c-1.1,3.15-1.64,6.4-1.64,9.73
			c0,3.51,0.62,6.81,1.87,9.92c1.24,3.12,2.98,5.86,5.19,8.28c2.21,2.41,4.78,4.32,7.7,5.72
			C801.1,1572.91,804.26,1573.61,807.68,1573.61z"/>
		<path class="st2" d="M879.2,1578.87c-4.27,0-8.24-0.84-11.9-2.51c-3.66-1.67-6.83-3.96-9.5-6.88c-2.68-2.92-4.79-6.28-6.3-10.1
			c-1.52-3.81-2.28-7.89-2.28-12.25c0-4.26,0.76-8.29,2.28-12.06c1.51-3.78,3.59-7.09,6.24-9.93c2.64-2.84,5.77-5.07,9.39-6.69
			c3.62-1.65,7.52-2.46,11.72-2.46c4.28,0,8.24,0.83,11.9,2.5c3.66,1.68,6.81,3.94,9.45,6.77c2.64,2.84,4.7,6.15,6.18,9.91
			c1.48,3.78,2.22,7.77,2.22,11.96c0,0.4,0,0.88,0,1.46c0,0.59-0.04,0.96-0.11,1.11h-53.2c0.22,3.5,1.05,6.75,2.45,9.75
			c1.39,2.98,3.17,5.57,5.3,7.74c2.14,2.19,4.61,3.88,7.41,5.14c2.81,1.25,5.8,1.87,8.99,1.87c2.1,0,4.16-0.29,6.18-0.86
			c2.02-0.6,3.9-1.38,5.65-2.4c1.75-1.01,3.31-2.23,4.67-3.67c1.36-1.45,2.43-3.01,3.21-4.73l5.13,1.4c-0.86,2.17-2.12,4.17-3.8,6
			c-1.67,1.84-3.6,3.41-5.83,4.73c-2.21,1.32-4.64,2.36-7.28,3.09C884.72,1578.49,882,1578.87,879.2,1578.87z M902.99,1545.02
			c-0.22-3.58-1.03-6.83-2.39-9.79c-1.37-2.95-3.12-5.5-5.25-7.64c-2.14-2.14-4.61-3.81-7.41-5.02c-2.8-1.2-5.79-1.81-8.99-1.81
			c-3.19,0-6.18,0.6-8.98,1.81c-2.8,1.21-5.27,2.88-7.41,5.02c-2.14,2.13-3.85,4.71-5.13,7.69c-1.28,2.99-2.04,6.24-2.27,9.73
			H902.99z"/>
		<path class="st2" d="M938.46,1577.7l-25.32-60.67h6.07l22.4,54.83l22.52-54.83h5.72l-25.32,60.67H938.46z"/>
		<path class="st2" d="M1005.08,1578.87c-4.27,0-8.25-0.84-11.9-2.51c-3.65-1.67-6.82-3.96-9.51-6.88c-2.68-2.92-4.78-6.28-6.3-10.1
			c-1.52-3.81-2.28-7.89-2.28-12.25c0-4.26,0.76-8.29,2.28-12.06c1.52-3.78,3.59-7.09,6.24-9.93c2.65-2.84,5.78-5.07,9.39-6.69
			c3.62-1.65,7.53-2.46,11.72-2.46c4.29,0,8.25,0.83,11.91,2.5c3.64,1.68,6.8,3.94,9.45,6.77c2.64,2.84,4.7,6.15,6.18,9.91
			c1.48,3.78,2.21,7.77,2.21,11.96c0,0.4,0,0.88,0,1.46c0,0.59-0.04,0.96-0.11,1.11h-53.2c0.24,3.5,1.04,6.75,2.45,9.75
			c1.4,2.98,3.18,5.57,5.31,7.74c2.14,2.19,4.61,3.88,7.41,5.14c2.8,1.25,5.79,1.87,8.99,1.87c2.09,0,4.15-0.29,6.18-0.86
			c2.02-0.6,3.91-1.38,5.66-2.4c1.74-1.01,3.3-2.23,4.66-3.67c1.37-1.45,2.42-3.01,3.21-4.73l5.14,1.4c-0.85,2.17-2.12,4.17-3.79,6
			c-1.67,1.84-3.62,3.41-5.83,4.73c-2.21,1.32-4.64,2.36-7.3,3.09C1010.6,1578.49,1007.87,1578.87,1005.08,1578.87z
			 M1028.88,1545.02c-0.24-3.58-1.04-6.83-2.4-9.79c-1.36-2.95-3.11-5.5-5.24-7.64c-2.14-2.14-4.61-3.81-7.41-5.02
			c-2.81-1.2-5.8-1.81-8.99-1.81c-3.19,0-6.18,0.6-8.99,1.81c-2.8,1.21-5.27,2.88-7.4,5.02c-2.14,2.13-3.85,4.71-5.13,7.69
			c-1.28,2.99-2.04,6.24-2.27,9.73H1028.88z"/>
		<path class="st2" d="M1047.77,1492.54h5.95v73.14c0,2.25,0.64,4.05,1.91,5.37c1.28,1.32,3.06,1.99,5.31,1.99
			c0.86,0,1.89-0.11,3.1-0.3c1.2-0.18,2.31-0.48,3.32-0.88l1.17,4.67c-1.32,0.56-2.95,1-4.9,1.35c-1.95,0.35-3.62,0.53-5.01,0.53
			c-3.27,0-5.89-1.01-7.88-2.99c-1.98-1.98-2.97-4.65-2.97-7.99V1492.54z"/>
		<path class="st2" d="M1102.95,1578.87c-4.28,0-8.23-0.84-11.84-2.51c-3.62-1.67-6.75-3.96-9.4-6.83
			c-2.63-2.87-4.7-6.22-6.18-10.03c-1.47-3.8-2.21-7.81-2.21-12.01c0-4.28,0.76-8.33,2.27-12.14c1.51-3.8,3.6-7.15,6.24-10.03
			c2.65-2.87,5.78-5.14,9.39-6.83c3.62-1.66,7.54-2.5,11.73-2.5c4.2,0,8.08,0.83,11.67,2.5c3.58,1.68,6.71,3.96,9.39,6.83
			c2.69,2.88,4.79,6.23,6.31,10.03c1.51,3.81,2.27,7.86,2.27,12.14c0,4.2-0.76,8.21-2.27,12.01c-1.52,3.81-3.6,7.16-6.25,10.03
			c-2.63,2.87-5.77,5.16-9.39,6.83C1111.05,1578.02,1107.15,1578.87,1102.95,1578.87z M1079.15,1547.71c0,3.58,0.62,6.95,1.87,10.09
			c1.24,3.15,2.94,5.89,5.07,8.23c2.14,2.33,4.65,4.18,7.53,5.55c2.87,1.34,5.94,2.03,9.21,2.03c3.27,0,6.35-0.69,9.22-2.03
			c2.87-1.37,5.41-3.25,7.58-5.67c2.18-2.41,3.88-5.18,5.13-8.33c1.24-3.15,1.87-6.56,1.87-10.21c0-3.58-0.62-6.94-1.87-10.09
			c-1.25-3.15-2.95-5.91-5.13-8.28c-2.17-2.37-4.7-4.26-7.53-5.65c-2.84-1.42-5.89-2.1-9.16-2.1c-3.26,0-6.33,0.69-9.22,2.1
			c-2.88,1.39-5.39,3.3-7.52,5.71c-2.14,2.41-3.86,5.23-5.13,8.45C1079.79,1540.73,1079.15,1544.15,1079.15,1547.71z"/>
		<path class="st2" d="M1176.21,1578.87c-5.21,0-9.87-1.38-13.95-4.14c-4.07-2.77-7.37-6.13-9.86-10.09v37.92h-5.83v-85.52h5.37
			v12.14c2.49-3.88,5.77-7.07,9.86-9.5c4.08-2.46,8.46-3.68,13.12-3.68c4.2,0,8.1,0.9,11.67,2.69c3.58,1.79,6.64,4.14,9.22,7.05
			c2.56,2.92,4.57,6.29,6,10.09c1.45,3.82,2.17,7.7,2.17,11.67c0,4.2-0.66,8.21-1.99,12.01c-1.32,3.81-3.21,7.16-5.65,10.03
			c-2.45,2.87-5.39,5.16-8.8,6.83C1184.11,1578.02,1180.33,1578.87,1176.21,1578.87z M1174.81,1573.61c3.5,0,6.69-0.75,9.56-2.21
			c2.88-1.49,5.33-3.44,7.36-5.91c2.02-2.44,3.56-5.25,4.66-8.4c1.09-3.14,1.63-6.35,1.63-9.61c0-3.51-0.62-6.83-1.87-9.98
			c-1.23-3.14-2.97-5.92-5.19-8.34c-2.22-2.41-4.8-4.34-7.77-5.78c-2.95-1.43-6.1-2.14-9.44-2.14c-2.1,0-4.34,0.45-6.71,1.34
			c-2.38,0.9-4.62,2.1-6.71,3.62c-2.11,1.51-3.9,3.26-5.37,5.19c-1.49,1.95-2.34,4-2.57,6.18v19.96c1.01,2.25,2.29,4.35,3.86,6.29
			c1.55,1.96,3.3,3.66,5.25,5.13c1.95,1.49,4.04,2.64,6.3,3.45C1170.06,1573.21,1172.4,1573.61,1174.81,1573.61z"/>
		<path class="st2" d="M1307.1,1577.7h-5.83v-33.83c0-7.7-1.19-13.37-3.57-17.04c-2.36-3.64-6-5.47-10.9-5.47
			c-2.49,0-4.85,0.46-7.11,1.39c-2.26,0.94-4.31,2.25-6.19,3.9c-1.86,1.68-3.47,3.66-4.83,5.96c-1.37,2.29-2.44,4.85-3.21,7.63
			v37.46h-5.83v-33.83c0-7.79-1.17-13.47-3.5-17.08c-2.33-3.62-5.95-5.44-10.84-5.44c-2.5,0-4.85,0.44-7.07,1.34
			c-2.21,0.89-4.25,2.17-6.13,3.85c-1.86,1.66-3.51,3.65-4.95,5.95c-1.45,2.29-2.55,4.84-3.33,7.64v37.57h-5.84v-60.67h5.49v14.47
			c2.49-4.91,5.76-8.7,9.8-11.44c4.04-2.7,8.51-4.08,13.41-4.08c5.13,0,9.29,1.52,12.48,4.55c3.18,3.04,5.09,7,5.71,11.9
			c5.76-10.98,13.68-16.45,23.8-16.45c6.61,0,11.34,2.36,14.17,7.07c2.84,4.71,4.26,11.29,4.26,19.76V1577.7z"/>
		<path class="st2" d="M1350.5,1578.87c-4.28,0-8.24-0.84-11.9-2.51s-6.83-3.96-9.51-6.88c-2.68-2.92-4.78-6.28-6.29-10.1
			c-1.52-3.81-2.28-7.89-2.28-12.25c0-4.26,0.76-8.29,2.28-12.06c1.51-3.78,3.6-7.09,6.22-9.93c2.65-2.84,5.78-5.07,9.4-6.69
			c3.62-1.65,7.52-2.46,11.72-2.46c4.28,0,8.24,0.83,11.9,2.5c3.66,1.68,6.81,3.94,9.45,6.77c2.65,2.84,4.7,6.15,6.18,9.91
			c1.49,3.78,2.22,7.77,2.22,11.96c0,0.4,0,0.88,0,1.46c0,0.59-0.04,0.96-0.1,1.11h-53.21c0.24,3.5,1.05,6.75,2.44,9.75
			c1.4,2.98,3.18,5.57,5.31,7.74c2.14,2.19,4.62,3.88,7.41,5.14c2.81,1.25,5.8,1.87,8.99,1.87c2.11,0,4.16-0.29,6.18-0.86
			c2.02-0.6,3.9-1.38,5.65-2.4c1.75-1.01,3.3-2.23,4.67-3.67c1.36-1.45,2.43-3.01,3.21-4.73l5.13,1.4c-0.86,2.17-2.13,4.17-3.8,6
			c-1.67,1.84-3.62,3.41-5.83,4.73c-2.21,1.32-4.64,2.36-7.28,3.09C1356.02,1578.49,1353.29,1578.87,1350.5,1578.87z
			 M1374.29,1545.02c-0.24-3.58-1.02-6.83-2.39-9.79c-1.36-2.95-3.11-5.5-5.25-7.64c-2.14-2.14-4.61-3.81-7.41-5.02
			c-2.8-1.2-5.8-1.81-8.99-1.81c-3.19,0-6.19,0.6-8.98,1.81c-2.8,1.21-5.28,2.88-7.41,5.02c-2.14,2.13-3.86,4.71-5.14,7.69
			c-1.28,2.99-2.04,6.24-2.27,9.73H1374.29z"/>
		<path class="st2" d="M1442.31,1577.7h-5.84v-33.83c0-7.86-1.11-13.57-3.33-17.15c-2.21-3.58-5.74-5.37-10.56-5.37
			c-2.57,0-5.12,0.46-7.64,1.39c-2.53,0.94-4.88,2.25-7.05,3.98c-2.19,1.71-4.09,3.71-5.72,6.01c-1.63,2.29-2.84,4.76-3.62,7.4
			v37.57h-5.83v-60.67h5.47v14.47c1.26-2.33,2.79-4.45,4.62-6.37c1.83-1.89,3.88-3.52,6.18-4.89c2.3-1.36,4.74-2.41,7.3-3.15
			c2.57-0.74,5.21-1.11,7.94-1.11c6.61,0,11.27,2.31,14,6.95c2.71,4.62,4.09,11.25,4.09,19.88V1577.7z"/>
		<path class="st2" d="M1486.41,1574.79c-0.31,0.14-0.84,0.44-1.58,0.87c-0.74,0.43-1.67,0.83-2.79,1.22
			c-1.13,0.39-2.4,0.75-3.79,1.06c-1.41,0.3-2.92,0.47-4.55,0.47c-1.63,0-3.18-0.24-4.62-0.71c-1.43-0.47-2.71-1.17-3.79-2.1
			s-1.93-2.06-2.56-3.38s-0.93-2.86-0.93-4.66v-45.74h-8.52v-4.79h8.52v-20.75h5.83v20.75h14.11v4.79h-14.11v44.33
			c0,2.25,0.77,3.95,2.33,5.07c1.55,1.13,3.31,1.7,5.25,1.7c2.41,0,4.49-0.41,6.25-1.22c1.74-0.82,2.82-1.35,3.2-1.57
			L1486.41,1574.79z"/>
	</g>
	<g>
		<polygon class="st2" points="1300,499.13 1300,397 700,397 700,753.81 		"/>
		<polygon class="st2" points="700,884.18 700,997 1300,997 1300,629.49 		"/>
	</g>
</g>
</svg>
